<?xml version="1.0" encoding="UTF-8" standalone="no"?>
<!-- Created with Inkscape (http://www.inkscape.org/) -->

<svg
   width="53.117878mm"
   height="11.715246mm"
   viewBox="0 0 200.76049 44.278097"
   version="1.1"
   id="svg5"
   sodipodi:docname="logo.svg"
   inkscape:version="1.1.1 (1:1.1+202109281949+c3084ef5ed)"
   xmlns:inkscape="http://www.inkscape.org/namespaces/inkscape"
   xmlns:sodipodi="http://sodipodi.sourceforge.net/DTD/sodipodi-0.dtd"
   xmlns="http://www.w3.org/2000/svg"
   xmlns:svg="http://www.w3.org/2000/svg">
  <sodipodi:namedview
     id="namedview49"
     pagecolor="#9c9c9c"
     bordercolor="#666666"
     borderopacity="1.0"
     inkscape:pageshadow="2"
     inkscape:pageopacity="0"
     inkscape:pagecheckerboard="0"
     inkscape:document-units="mm"
     showgrid="false"
     inkscape:zoom="4.2404169"
     inkscape:cx="103.40964"
     inkscape:cy="53.768298"
     inkscape:window-width="1918"
     inkscape:window-height="1059"
     inkscape:window-x="0"
     inkscape:window-y="19"
     inkscape:window-maximized="1"
     inkscape:current-layer="layer1" />
  <defs
     id="defs2" />
  <g
     id="layer1"
     transform="translate(-80.780804,-325.41282)">
    <g
       aria-label="COACHIUM"
       id="text3466"
       style="font-size:24.1643px;font-family:Orbitron;-inkscape-font-specification:Orbitron;fill:#ffffff;stroke-width:1.51264"
       transform="translate(0,-2.0679515)">
      <path
         d="m 136.04814,354.67168 v -11.11463 q 0,-1.30969 0.90852,-2.23001 0.92032,-0.92032 2.23,-0.92032 h 14.20597 v 2.61938 h -14.20597 q -0.21238,0 -0.37756,0.15338 -0.15339,0.15339 -0.15339,0.37757 v 11.11463 q 0,0.21239 0.15339,0.37757 0.15338,0.15339 0.37756,0.15339 h 14.20597 v 2.60757 h -14.20597 q -1.30968,0 -2.23,-0.90852 -0.90852,-0.92032 -0.90852,-2.23001 z"
         id="path1033" />
      <path
         d="m 155.85862,354.67168 v -11.11463 q 0,-1.30969 0.90852,-2.23001 0.92032,-0.92032 2.23,-0.92032 h 11.11464 q 1.30968,0 2.2182,0.92032 0.92032,0.92032 0.92032,2.23001 v 11.11463 q 0,1.30969 -0.92032,2.23001 -0.90852,0.90852 -2.2182,0.90852 h -11.11464 q -1.30968,0 -2.23,-0.90852 -0.90852,-0.92032 -0.90852,-2.23001 z m 2.60757,0 q 0,0.21239 0.15339,0.37757 0.15338,0.15339 0.37756,0.15339 h 11.11464 q 0.21238,0 0.36577,-0.15339 0.16518,-0.16518 0.16518,-0.37757 v -11.11463 q 0,-0.21238 -0.16518,-0.36577 -0.15339,-0.16518 -0.36577,-0.16518 h -11.11464 q -0.21238,0 -0.37756,0.15338 -0.15339,0.15339 -0.15339,0.37757 z"
         id="path1035" />
      <path
         d="m 175.95227,357.81021 v -14.25316 q 0,-1.30969 0.90852,-2.23001 0.92032,-0.92032 2.23001,-0.92032 h 11.11463 q 1.30969,0 2.21821,0.92032 0.92032,0.92032 0.92032,2.23001 v 14.25316 h -2.60758 v -6.08827 h -12.17654 v 6.08827 z m 2.60757,-8.69584 h 12.17654 v -5.55732 q 0,-0.21238 -0.15338,-0.36577 -0.15339,-0.16518 -0.37757,-0.16518 H 179.0908 q -0.21239,0 -0.37757,0.15338 -0.15339,0.15339 -0.15339,0.37757 z"
         id="path1037" />
      <path
         d="m 196.10492,354.67168 v -11.11463 q 0,-1.30969 0.90852,-2.23001 0.92032,-0.92032 2.23,-0.92032 h 14.20597 v 2.61938 h -14.20597 q -0.21238,0 -0.37756,0.15338 -0.15339,0.15339 -0.15339,0.37757 v 11.11463 q 0,0.21239 0.15339,0.37757 0.15338,0.15339 0.37756,0.15339 h 14.20597 v 2.60757 h -14.20597 q -1.30968,0 -2.23,-0.90852 -0.90852,-0.92032 -0.90852,-2.23001 z"
         id="path1039" />
      <path
         d="m 215.98619,357.81021 v -17.40349 h 2.60758 v 7.39796 h 12.5895 v -7.39796 h 2.60758 v 17.40349 h -2.60758 v -7.39796 h -12.5895 v 7.39796 z"
         id="path1041" />
      <path
         d="m 236.54,357.81021 v -17.40349 h 2.60758 v 17.40349 z"
         id="path1043" />
      <path
         d="m 241.77875,354.67168 v -14.26496 h 2.60757 v 14.26496 q 0,0.21239 0.15339,0.37757 0.15339,0.15339 0.37757,0.15339 h 11.11463 q 0.21238,0 0.36577,-0.15339 0.16518,-0.16518 0.16518,-0.37757 v -14.26496 h 2.60758 v 14.26496 q 0,1.30969 -0.92032,2.23001 -0.90852,0.90852 -2.21821,0.90852 h -11.11463 q -1.30969,0 -2.23001,-0.90852 -0.90852,-0.92032 -0.90852,-2.23001 z"
         id="path1045" />
      <path
         d="m 261.8252,357.81021 v -17.40349 h 3.09134 l 6.76081,8.0469 6.74901,-8.0469 h 3.11493 v 17.40349 h -2.60757 v -13.92279 l -7.25637,8.62505 -7.24457,-8.62505 v 13.92279 z"
         id="path1047" />
    </g>
    <g
       id="g6034"
       transform="translate(10.230618,15.669116)">
      <rect
         style="fill:#ffffff;fill-opacity:1;stroke:none;stroke-width:1.40864"
         id="rect5354"
         width="13.327744"
         height="17.705336"
         x="85.710205"
         y="324.53333"
         ry="2.9192166" />
      <circle
         style="fill:#ffffff;fill-opacity:1;stroke:none"
         id="path5939"
         cx="95.061462"
         cy="321.0141"
         r="2.0301559" />
      <circle
         style="fill:#ffffff;fill-opacity:1;stroke:none"
         id="path5939-3"
         cx="89.653328"
         cy="321.06577"
         r="2.0301559" />
      <circle
         style="fill:#ffffff;fill-opacity:1;stroke:none"
         id="path5939-6"
         cx="82.109787"
         cy="327.96252"
         r="2.0301559" />
      <circle
         style="fill:#ffffff;fill-opacity:1;stroke:none"
         id="path5939-7"
         cx="82.109787"
         cy="333.37152"
         r="2.0301559" />
      <circle
         style="fill:#ffffff;fill-opacity:1;stroke:none"
         id="path5939-5"
         cx="82.109787"
         cy="338.55948"
         r="2.0301559" />
      <circle
         style="fill:#ffffff;fill-opacity:1;stroke:none"
         id="path5939-35"
         cx="102.6049"
         cy="338.55948"
         r="2.0301559" />
      <circle
         style="fill:#ffffff;fill-opacity:1;stroke:none"
         id="path5939-62"
         cx="102.6049"
         cy="333.37152"
         r="2.0301559" />
      <circle
         style="fill:#ffffff;fill-opacity:1;stroke:none"
         id="path5939-9"
         cx="102.6049"
         cy="327.96252"
         r="2.0301559" />
      <circle
         style="fill:#ffffff;fill-opacity:1;stroke:none"
         id="path5939-1"
         cx="95.061462"
         cy="345.77719"
         r="2.0301559" />
      <circle
         style="fill:#ffffff;fill-opacity:1;stroke:none"
         id="path5939-2"
         cx="89.653328"
         cy="345.79187"
         r="2.0301559" />
    </g>
    <g
       id="g6056"
       style="stroke:#ffffff;stroke-width:1.32283;stroke-miterlimit:4;stroke-dasharray:none;stroke-opacity:0.999688"
       transform="translate(10.230618,15.669116)">
      <circle
         style="fill:none;fill-opacity:0.383694;stroke:#ffffff;stroke-width:1.32283;stroke-miterlimit:4;stroke-dasharray:none;stroke-opacity:0.999688"
         id="path857"
         cx="85.702988"
         cy="314.38815"
         r="2.0744307" />
      <circle
         style="fill:none;fill-opacity:0.383694;stroke:#ffffff;stroke-width:1.32283;stroke-miterlimit:4;stroke-dasharray:none;stroke-opacity:0.999688"
         id="path857-3"
         cx="73.386101"
         cy="313.37466"
         r="2.0744307" />
      <circle
         style="fill:none;fill-opacity:0.383694;stroke:#ffffff;stroke-width:1.32283;stroke-miterlimit:4;stroke-dasharray:none;stroke-opacity:0.999688"
         id="path857-6"
         cx="73.476288"
         cy="327.96252"
         r="2.0744307" />
      <circle
         style="fill:none;fill-opacity:0.383694;stroke:#ffffff;stroke-width:1.32283;stroke-miterlimit:4;stroke-dasharray:none;stroke-opacity:0.999688"
         id="path857-7"
         cx="76.710609"
         cy="333.37152"
         r="2.0744307" />
      <circle
         style="fill:none;fill-opacity:0.383694;stroke:#ffffff;stroke-width:1.32283;stroke-miterlimit:4;stroke-dasharray:none;stroke-opacity:0.999688"
         id="path857-5"
         cx="73.286034"
         cy="349.25024"
         r="2.0744307" />
      <circle
         style="fill:none;fill-opacity:0.383694;stroke:#ffffff;stroke-width:1.32283;stroke-miterlimit:4;stroke-dasharray:none;stroke-opacity:0.999688"
         id="path857-35"
         cx="80.287384"
         cy="351.28595"
         r="2.0744307" />
      <circle
         style="fill:none;fill-opacity:0.383694;stroke:#ffffff;stroke-width:1.32283;stroke-miterlimit:4;stroke-dasharray:none;stroke-opacity:0.999688"
         id="path857-62"
         cx="102.14763"
         cy="351.267"
         r="2.0744307" />
      <circle
         style="fill:none;fill-opacity:0.383694;stroke:#ffffff;stroke-width:1.32283;stroke-miterlimit:4;stroke-dasharray:none;stroke-opacity:0.999688"
         id="path857-9"
         cx="111.27984"
         cy="349.25021"
         r="2.0744307" />
      <circle
         style="fill:none;fill-opacity:0.383694;stroke:#ffffff;stroke-width:1.32283;stroke-miterlimit:4;stroke-dasharray:none;stroke-opacity:0.999688"
         id="path857-1"
         cx="112.25015"
         cy="333.37152"
         r="2.0744307" />
      <circle
         style="fill:none;fill-opacity:0.383694;stroke:#ffffff;stroke-width:1.32283;stroke-miterlimit:4;stroke-dasharray:none;stroke-opacity:0.999688"
         id="path857-2"
         cx="110.4998"
         cy="312.51208"
         r="2.0744307" />
      <path
         style="fill:none;stroke:#ffffff;stroke-width:1.32283;stroke-linecap:butt;stroke-linejoin:miter;stroke-miterlimit:4;stroke-dasharray:none;stroke-opacity:0.999688"
         d="m 87.769256,314.50865 5.831102,-0.004 c 0.716356,0.0229 1.360214,0.28836 1.408011,1.37014 l -0.0057,4.78281"
         id="path1622" />
      <path
         style="fill:none;stroke:#ffffff;stroke-width:1.32283;stroke-linecap:butt;stroke-linejoin:miter;stroke-miterlimit:4;stroke-dasharray:none;stroke-opacity:0.999688"
         d="m 75.453721,327.98566 5.383689,-0.0454"
         id="path1770" />
      <path
         style="fill:none;stroke:#ffffff;stroke-width:1.32283;stroke-linecap:butt;stroke-linejoin:miter;stroke-miterlimit:4;stroke-dasharray:none;stroke-opacity:0.999688"
         d="m 78.809277,333.2314 2.264947,-0.0339"
         id="path1920" />
      <path
         style="fill:none;stroke:#ffffff;stroke-width:1.32283;stroke-linecap:butt;stroke-linejoin:miter;stroke-miterlimit:4;stroke-dasharray:none;stroke-opacity:0.999688"
         d="m 73.374124,347.32338 0.01556,-6.47984 c 0.267749,-1.07178 0.636598,-2.04849 2.114037,-2.31642 l 5.320948,0.0386"
         id="path2080" />
      <path
         style="fill:none;stroke:#ffffff;stroke-width:1.32283;stroke-linecap:butt;stroke-linejoin:miter;stroke-miterlimit:4;stroke-dasharray:none;stroke-opacity:0.999688"
         d="m 89.373751,345.65467 -7.246579,-0.0258 c -0.9331,0.0324 -1.578264,0.42012 -1.814499,1.31255 l 0.0079,2.18667"
         id="path2115" />
      <path
         style="fill:none;stroke:#ffffff;stroke-width:1.32283;stroke-linecap:butt;stroke-linejoin:miter;stroke-miterlimit:4;stroke-dasharray:none;stroke-opacity:0.999688"
         d="m 96.208925,345.63284 4.505445,0.0327 c 0.72288,0.0974 1.20095,0.51859 1.37577,1.34087 l -0.003,1.95061"
         id="path2152" />
      <path
         style="fill:none;stroke:#ffffff;stroke-width:1.32283;stroke-linecap:butt;stroke-linejoin:miter;stroke-miterlimit:4;stroke-dasharray:none;stroke-opacity:0.999688"
         d="m 103.66226,338.55782 4.97174,-0.0785 c 1.22528,0.0518 2.33522,0.42377 2.58782,2.53224 l -0.0688,6.07306"
         id="path2187" />
      <path
         style="fill:none;stroke:#ffffff;stroke-width:1.32283;stroke-linecap:butt;stroke-linejoin:miter;stroke-miterlimit:4;stroke-dasharray:none;stroke-opacity:0.999688"
         d="m 103.49646,328.19486 4.58328,-4e-5 c 1.14042,-0.0689 2.15224,-0.37727 2.36848,-2.1672 l 0.008,-11.38975"
         id="path2435" />
      <path
         style="fill:none;stroke:#ffffff;stroke-width:1.32283;stroke-linecap:butt;stroke-linejoin:miter;stroke-miterlimit:4;stroke-dasharray:none;stroke-opacity:0.999688"
         d="m 88.454454,321.3016 -3.923258,-0.022 c -0.574202,-0.13959 -1.166535,-0.43142 -1.777349,-0.87841 l -7.628452,-5.34727"
         id="path2470" />
      <path
         style="fill:none;stroke:#ffffff;stroke-width:1.32283;stroke-linecap:butt;stroke-linejoin:miter;stroke-miterlimit:4;stroke-dasharray:none;stroke-opacity:0.999688"
         d="m 103.75097,333.4096 5.96261,-0.0283"
         id="path2400" />
    </g>
    <path
       style="fill:#ffffff;stroke:#ffffff;stroke-width:2.64567;stroke-linecap:round;stroke-linejoin:miter;stroke-miterlimit:4;stroke-dasharray:none;stroke-opacity:1"
       d="m 137.36596,326.73565 h 142.8227"
       id="path7262" />
    <path
       style="fill:#ffffff;stroke:#ffffff;stroke-width:2.64567;stroke-linecap:round;stroke-linejoin:miter;stroke-miterlimit:4;stroke-dasharray:none;stroke-opacity:1"
       d="m 137.36362,368.33291 h 142.8277"
       id="path7262-6" />
  </g>
</svg>
