<?xml version="1.0" encoding="UTF-8" standalone="no"?>
<svg
   aria-hidden="true"
   focusable="false"
   data-prefix="fas"
   data-icon="earth-europa"
   class="svg-inline--fa fa-earth-europa"
   role="img"
   viewBox="0 0 512 512"
   version="1.1"
   id="svg980"
   sodipodi:docname="earth-europa-solid.svg"
   width="512"
   height="512"
   inkscape:version="1.1.1 (1:1.1+202109281949+c3084ef5ed)"
   xmlns:inkscape="http://www.inkscape.org/namespaces/inkscape"
   xmlns:sodipodi="http://sodipodi.sourceforge.net/DTD/sodipodi-0.dtd"
   xmlns="http://www.w3.org/2000/svg"
   xmlns:svg="http://www.w3.org/2000/svg">
  <defs
     id="defs984" />
  <sodipodi:namedview
     id="namedview982"
     pagecolor="#ffffff"
     bordercolor="#666666"
     borderopacity="1.0"
     inkscape:pageshadow="2"
     inkscape:pageopacity="0.0"
     inkscape:pagecheckerboard="0"
     showgrid="false"
     inkscape:zoom="1.6972656"
     inkscape:cx="256.29459"
     inkscape:cy="256.29459"
     inkscape:window-width="1918"
     inkscape:window-height="1059"
     inkscape:window-x="0"
     inkscape:window-y="19"
     inkscape:window-maximized="1"
     inkscape:current-layer="svg980" />
  <path
     fill="currentColor"
     d="M 256,0 C 114.6,0 0,114.6 0,256 0,397.4 114.6,512 256,512 397.4,512 512,397.4 512,256 512,114.6 397.4,0 256,0 Z m 208,256 c 0,22.34 -3.633,43.82 -10.18,64 h -23.05 c -4.359,0 -8.477,-1.625 -11.38,-4.742 l -32.09,-32.58 c -4.48,-4.617 -4.48,-12.11 0.1211,-16.73 L 399.9,253.5 v -8.613 c 0,-2.996 -1.09,-5.867 -3.27,-7.988 l -9.324,-9.363 c -2.18,-2.117 -5.086,-3.367 -8.113,-3.367 h -15.98 c -6.176,0 -11.26,-5.117 -11.26,-11.23 0,-2.996 1.211,-5.867 3.27,-7.988 l 9.445,-9.363 c 2.059,-2.117 4.965,-3.367 7.992,-3.367 h 31.97 c 6.176,0 11.38,-5.117 11.38,-11.23 V 171.6 c 0,-6.242 -5.207,-11.36 -11.38,-11.36 h -36.69 c -8.719,0 -15.98,7.238 -15.98,15.98 v 4.492 c 0,6.867 -4.359,12.98 -10.9,15.23 l -31.61,10.48 c -3.27,1.125 -5.449,4.121 -5.449,7.617 v 2.121 c 0,4.367 -3.633,7.988 -7.992,7.988 h -16.11 c -4.359,0 -7.992,-3.621 -7.992,-7.988 0,-4.371 -3.512,-7.988 -7.992,-7.988 h -3.027 c -3.027,0 -5.812,1.746 -7.266,4.367 l -9.324,18.72 C 241.5,236.6 236,239.1 229.1,239.1 h -21.3 c -8.84,0 -15.98,-7.117 -15.98,-15.98 V 198.8 c 0,-4.246 1.695,-8.242 4.723,-11.23 l 20.1,-20.1 C 221.3,162.9 223.8,156.6 223.8,150 c 0,-3.371 2.18,-6.492 5.57,-7.617 l 39.96,-13.23 c 1.695,-0.625 3.148,-1.5 4.359,-2.75 l 26.88,-26.71 c 2.059,-2.117 3.27,-4.992 3.27,-7.984 0,-6.242 -5.086,-11.36 -11.26,-11.36 H 271.9 L 255.8,96.33 v 7.988 c 0,4.367 -3.512,7.988 -7.992,7.988 H 231.8 c -4.359,0 -7.992,-3.621 -7.992,-7.988 V 84.34 c 0,-2.496 1.211,-4.867 3.27,-6.367 l 37.51,-29.54 C 375.3,52.99 464,144.2 464,256 Z M 138.1,149.1 c 0,-3 1.211,-5.875 3.391,-8 l 25.31,-25.38 c 2.18,-2.125 5.086,-3.375 7.992,-3.375 6.297,0 11.38,5.125 11.38,11.38 v 16 c 0,3 -1.211,5.875 -3.27,8 l -9.445,9.375 c -2.058,2.2 -5.058,3.3 -8.058,3.3 h -16 c -6.3,0 -11.3,-5.1 -11.3,-11.3 z M 272,463.2 271.8564,447.49 c -0.0977,0.004 0.0977,-0.008 0,0 -0.4785,-8.332 -7.423,-15.11 -15.95,-15.11 h -20.22 c -10.78,0 -26.64,-5.25 -35.36,-11.75 L 178.2,403.9 C 166.7,395.3 160,381.8 160,367.5 v -23.88 c 0,-16 8.355,-30.88 22.04,-39 l 42.87,-25.75 c 7.145,-4.125 15.26,-6.5 23.49,-6.5 h 31.12 c 10.9,0 21.43,3.875 29.67,10.88 l 43.11,37.13 h 18.29 c 8.598,0 16.71,3.375 22.64,9.375 l 17.32,17.38 C 413.5,350 417.4,351.6 421.6,352 h 18.78 C 407.9,413.1 345.2,457.6 272,463.2 Z"
     id="path978" />
</svg>
