<?xml version="1.0" encoding="UTF-8" standalone="no"?>
<svg
   aria-hidden="true"
   focusable="false"
   data-prefix="fas"
   data-icon="envelope"
   class="svg-inline--fa fa-envelope"
   role="img"
   viewBox="0 0 512 384"
   version="1.1"
   id="svg4"
   sodipodi:docname="envelope-solid.svg"
   width="512"
   height="384"
   inkscape:version="1.1.1 (1:1.1+202109281949+c3084ef5ed)"
   xmlns:inkscape="http://www.inkscape.org/namespaces/inkscape"
   xmlns:sodipodi="http://sodipodi.sourceforge.net/DTD/sodipodi-0.dtd"
   xmlns="http://www.w3.org/2000/svg"
   xmlns:svg="http://www.w3.org/2000/svg">
  <defs
     id="defs8" />
  <sodipodi:namedview
     id="namedview6"
     pagecolor="#ffffff"
     bordercolor="#666666"
     borderopacity="1.0"
     inkscape:pageshadow="2"
     inkscape:pageopacity="0.0"
     inkscape:pagecheckerboard="0"
     showgrid="false"
     fit-margin-top="0"
     fit-margin-left="0"
     fit-margin-right="0"
     fit-margin-bottom="0"
     inkscape:zoom="0.58669078"
     inkscape:cx="74.144679"
     inkscape:cy="170.44754"
     inkscape:window-width="1918"
     inkscape:window-height="1059"
     inkscape:window-x="0"
     inkscape:window-y="19"
     inkscape:window-maximized="1"
     inkscape:current-layer="svg4" />
  <path
     fill="currentColor"
     d="m 256,288 c -16.53,0 -33.06,-5.422 -47.16,-16.41 L 0,109.2 V 336 c 0,26.5 21.49,48 48,48 h 416 c 26.51,0 48,-21.49 48,-48 V 109.2 L 303.2,271.7 C 289.1,282.6 272.5,288 256,288 Z M 16.29,81.3 228.49,246.4 c 16.19,12.6 38.87,12.6 55.06,0 L 495.75,81.3 C 505.1,73.3 512,61 512,48 512,21.49 490.5,0 464,0 H 48 C 21.49,0 0,21.49 0,48 0,61 6.01,73.3 16.29,81.3 Z"
     id="path2" />
</svg>
