<?xml version="1.0" encoding="UTF-8" standalone="no"?>
<svg
   viewBox="0 -32 576 576"
   version="1.1"
   id="svg4"
   width="576"
   height="576"
   xmlns="http://www.w3.org/2000/svg"
   xmlns:svg="http://www.w3.org/2000/svg">
  <defs
     id="defs8" />
  <!--! Font Awesome Pro 6.3.0 by @fontawesome - https://fontawesome.com License - https://fontawesome.com/license (Commercial License) Copyright 2023 Fonticons, Inc. -->
  <path
     d="M 0,64 C 0,28.7 28.7,0 64,0 h 160 v 128 c 0,17.7 14.3,32 32,32 H 384 V 288 H 216 c -13.3,0 -24,10.7 -24,24 0,13.3 10.7,24 24,24 h 168 v 112 c 0,35.3 -28.7,64 -64,64 H 64 C 28.7,512 0,483.3 0,448 Z m 384,272 v -48 h 110.1 l -39,-39 c -9.4,-9.4 -9.4,-24.6 0,-33.9 9.4,-9.3 24.6,-9.4 33.9,0 l 80,80 c 9.4,9.4 9.4,24.6 0,33.9 l -80,80 c -9.4,9.4 -24.6,9.4 -33.9,0 -9.3,-9.4 -9.4,-24.6 0,-33.9 l 39,-39 H 384 Z m 0,-208 H 256 V 0 Z"
     id="path2" />
</svg>
