<?xml version="1.0" encoding="UTF-8" standalone="no"?>
<svg
   aria-hidden="true"
   focusable="false"
   data-prefix="fas"
   data-icon="rectangle-list"
   class="svg-inline--fa fa-rectangle-list"
   role="img"
   viewBox="0 0 477.92023 448"
   version="1.1"
   id="svg4"
   sodipodi:docname="capturemgmt.svg"
   width="477.92023"
   height="448"
   inkscape:version="1.1.2 (1:1.1+202202050950+0a00cf5339)"
   xmlns:inkscape="http://www.inkscape.org/namespaces/inkscape"
   xmlns:sodipodi="http://sodipodi.sourceforge.net/DTD/sodipodi-0.dtd"
   xmlns="http://www.w3.org/2000/svg"
   xmlns:svg="http://www.w3.org/2000/svg">
  <defs
     id="defs8" />
  <sodipodi:namedview
     id="namedview6"
     pagecolor="#ffffff"
     bordercolor="#666666"
     borderopacity="1.0"
     inkscape:pageshadow="2"
     inkscape:pageopacity="0.0"
     inkscape:pagecheckerboard="0"
     showgrid="false"
     fit-margin-top="0"
     fit-margin-left="0"
     fit-margin-right="0"
     fit-margin-bottom="0"
     inkscape:zoom="0.41082289"
     inkscape:cx="253.15045"
     inkscape:cy="377.29154"
     inkscape:window-width="1051"
     inkscape:window-height="1053"
     inkscape:window-x="3"
     inkscape:window-y="22"
     inkscape:window-maximized="1"
     inkscape:current-layer="svg4" />
  <path
     fill="currentColor"
     d="M 0,64 C 0,28.65 28.65,0 64,0 h 349.92022 c 35.3,0 64,28.65 64,64 v 320 c 0,35.3 -28.7,64 -64,64 H 64 C 28.65,448 0,419.3 0,384 Z m 160,160 c 0,-17.7 -14.3,-32 -32,-32 -17.7,0 -32,14.3 -32,32 0,17.7 14.3,32 32,32 17.7,0 32,-14.3 32,-32 z m 0,-96 c 0,-17.7 -14.3,-32 -32,-32 -17.7,0 -32,14.3 -32,32 0,17.7 14.3,32 32,32 17.7,0 32,-14.3 32,-32 z m 0,192 c 0,-17.7 -14.3,-32 -32,-32 -17.7,0 -32,14.3 -32,32 0,17.7 14.3,32 32,32 17.7,0 32,-14.3 32,-32 z m 64,-216 c -13.3,0 -24,10.7 -24,24 0,13.3 10.7,24 24,24 h 125.92022 c 13.3,0 24,-10.7 24,-24 0,-13.3 -10.7,-24 -24,-24 z m 0,96 c -13.3,0 -24,10.7 -24,24 0,13.3 10.7,24 24,24 h 125.92022 c 13.3,0 24,-10.7 24,-24 0,-13.3 -10.7,-24 -24,-24 z m 0,96 c -13.3,0 -24,10.7 -24,24 0,13.3 10.7,24 24,24 h 125.92022 c 13.3,0 24,-10.7 24,-24 0,-13.3 -10.7,-24 -24,-24 z"
     id="path2"
     style="fill: #FFFFFF;"
     sodipodi:nodetypes="sssssssssssssssssssssssssssssssssssssssssssss" />
</svg>
