<?xml version="1.0" encoding="UTF-8" standalone="no"?>
<svg
   viewBox="0 0 320.02499 320.02499"
   version="1.1"
   id="svg4"
   sodipodi:docname="close.svg"
   width="320.02499"
   height="320.02499"
   inkscape:version="1.1.2 (0a00cf5339, 2022-02-04)"
   xmlns:inkscape="http://www.inkscape.org/namespaces/inkscape"
   xmlns:sodipodi="http://sodipodi.sourceforge.net/DTD/sodipodi-0.dtd"
   xmlns="http://www.w3.org/2000/svg"
   xmlns:svg="http://www.w3.org/2000/svg">
  <defs
     id="defs8" />
  <sodipodi:namedview
     id="namedview6"
     pagecolor="#ffffff"
     bordercolor="#666666"
     borderopacity="1.0"
     inkscape:pageshadow="2"
     inkscape:pageopacity="0.0"
     inkscape:pagecheckerboard="0"
     showgrid="false"
     fit-margin-top="0"
     fit-margin-left="0"
     fit-margin-right="0"
     fit-margin-bottom="0"
     inkscape:zoom="0.61859011"
     inkscape:cx="-503.56447"
     inkscape:cy="288.55941"
     inkscape:window-width="1918"
     inkscape:window-height="1057"
     inkscape:window-x="0"
     inkscape:window-y="21"
     inkscape:window-maximized="1"
     inkscape:current-layer="svg4" />
  <!--! Font Awesome Pro 6.0.0 by @fontawesome - https://fontawesome.com License - https://fontawesome.com/license (Commercial License) Copyright 2022 Fonticons, Inc. -->
  <path
     d="m 310.6,265.425 c 12.5,12.5 12.5,32.75 0,45.25 -6.2,6.25 -14.4,9.35 -22.6,9.35 -8.2,0 -16.38,-3.125 -22.62,-9.375 L 160,205.325 54.63,310.625 c -6.25,6.3 -14.44,9.4 -22.63,9.4 -8.19,0 -16.37,-3.1 -22.625,-9.4 -12.5,-12.5 -12.5,-32.75 0,-45.25 l 105.4,-105.4 -105.4,-105.35 c -12.5,-12.5 -12.5,-32.75 0,-45.25 12.5,-12.5 32.75,-12.5 45.25,0 L 160,114.825 265.4,9.425 c 12.5,-12.5 32.75,-12.5 45.25,0 12.5,12.5 12.5,32.75 0,45.25 l -105.4,105.4 z"
     id="path2" />
</svg>
