<?xml version="1.0" encoding="UTF-8" standalone="no"?>
<svg
   viewBox="-32 0 512 512"
   version="1.1"
   id="svg4"
   width="512"
   height="512"
   xmlns="http://www.w3.org/2000/svg"
   xmlns:svg="http://www.w3.org/2000/svg">
  <defs
     id="defs8" />
  <!--! Font Awesome Pro 6.4.0 by @fontawesome - https://fontawesome.com License - https://fontawesome.com/license (Commercial License) Copyright 2023 Fonticons, Inc. -->
  <path
     d="m 438.6,150.6 c 12.5,-12.5 12.5,-32.8 0,-45.3 l -96,-96 c -12.5,-12.5 -32.8,-12.5 -45.3,0 -12.5,12.5 -12.5,32.8 0,45.3 L 338.7,96 H 32 c -17.7,0 -32,14.3 -32,32 0,17.7 14.3,32 32,32 h 306.7 l -41.4,41.4 c -12.5,12.5 -12.5,32.8 0,45.3 12.5,12.5 32.8,12.5 45.3,0 l 96,-96 z m -333.3,352 c 12.5,12.5 32.8,12.5 45.3,0 12.5,-12.5 12.5,-32.8 0,-45.3 L 109.3,416 H 416 c 17.7,0 32,-14.3 32,-32 0,-17.7 -14.3,-32 -32,-32 H 109.3 l 41.4,-41.4 c 12.5,-12.5 12.5,-32.8 0,-45.3 -12.5,-12.5 -32.8,-12.5 -45.3,0 l -96,96 c -12.5,12.5 -12.5,32.8 0,45.3 l 96,96 z"
     id="path2" />
</svg>
