<?xml version="1.0" encoding="UTF-8" standalone="no"?>
<svg
   aria-hidden="true"
   focusable="false"
   data-prefix="fas"
   data-icon="folder-open"
   class="svg-inline--fa fa-folder-open"
   role="img"
   viewBox="0 0 576 512"
   version="1.1"
   id="svg4"
   xmlns="http://www.w3.org/2000/svg"
   xmlns:svg="http://www.w3.org/2000/svg">
  <defs
     id="defs8" />
  <path
     id="path2"
     d="M 48 32 C 21.490027 32 0 53.490027 0 80 L 0 408.40039 L 90.539062 227.30078 C 101.39905 205.6008 123.40081 192 147.80078 192 L 264.16992 192 A 219.75482 219.75482 0 0 1 411.49805 134.52148 A 219.75482 219.75482 0 0 1 480 145.51367 L 480 144 C 480 117.50003 458.49997 96 432 96 L 272 96 L 208 32 L 48 32 z M 147.80078 224 C 135.70079 224 124.59921 230.79923 119.19922 241.69922 L 0 480 L 231.59961 480 A 219.75482 219.75482 0 0 1 191.74219 354.27734 A 219.75482 219.75482 0 0 1 234.65625 224 L 147.80078 224 z " />
  <path
     fill="currentColor"
     d="M 464.69494,374.1813 359.83766,192.86026 H 463.15669 L 568.01397,374.1813 Z M 376.56611,389.30742 324.90659,480 h 199.01092 l 51.65952,-90.69258 z M 346.1857,215.54942 247.41732,389.30742 299.07684,480 399.31937,306.1779 Z"
     id="path258"
     style="stroke-width:0.640937" />
</svg>
