<?xml version="1.0" encoding="UTF-8" standalone="no"?>
<svg
   aria-hidden="true"
   focusable="false"
   data-prefix="fas"
   data-icon="floppy-disk"
   class="svg-inline--fa fa-floppy-disk"
   role="img"
   viewBox="0 0 544 512"
   version="1.1"
   id="svg135"
   width="544"
   height="512"
   xmlns="http://www.w3.org/2000/svg"
   xmlns:svg="http://www.w3.org/2000/svg">
  <defs
     id="defs139" />
  <path
     id="path133"
     d="M 64 32 C 28.650035 32 0 60.650035 0 96 L 0 416 C 0 451.34996 28.650035 480 64 480 L 200.10156 480 A 219.75482 219.75482 0 0 1 160.35742 358.71875 C 160.32803 358.43727 160.3226 358.14974 160.29688 357.86719 A 219.75482 219.75482 0 0 1 160.03906 354.27734 A 219.75482 219.75482 0 0 1 160.08398 353.65625 C 160.06972 353.10056 160 352.55912 160 352 C 160 348.33479 160.37867 344.76456 160.9707 341.26758 A 219.75482 219.75482 0 0 1 203.50977 224 L 80 224 C 71.160009 224 64 216.79999 64 208 L 64 112 C 64 103.20001 71.160009 96 80 96 L 304 96 C 312.79999 96 320 103.20001 320 112 L 320 142.96289 A 219.75482 219.75482 0 0 1 379.79492 134.52148 A 219.75482 219.75482 0 0 1 442.92383 143.80078 C 440.34738 138.22501 436.98007 132.98007 433.09961 129.09961 L 349.19922 45.199219 C 342.29923 38.319226 327.0996 32 316.09961 32 L 64 32 z " />
  <path
     fill="currentColor"
     d="M 432.99235,374.1813 328.13507,192.86026 H 431.4541 L 536.31138,374.1813 Z M 344.86352,389.30742 293.204,480 h 199.01092 l 51.65952,-90.69258 z m -30.38041,-173.758 -98.76838,173.758 L 267.37425,480 367.61678,306.1779 Z"
     id="path258"
     style="stroke-width:0.640937" />
</svg>
