<?xml version="1.0" encoding="UTF-8" standalone="no"?>
<svg
   aria-hidden="true"
   focusable="false"
   data-prefix="fas"
   data-icon="square-root-variable"
   class="svg-inline--fa fa-square-root-variable"
   role="img"
   viewBox="0 -32 576 576"
   version="1.1"
   id="svg4"
   width="576"
   height="576"
   xmlns="http://www.w3.org/2000/svg"
   xmlns:svg="http://www.w3.org/2000/svg">
  <defs
     id="defs8" />
  <path
     fill="currentColor"
     d="M 576,32.01 C 576,14.32 561.67,0.91 544,0.91 L 320,0.9051 c -14.69,0 -27.48,10 -31.05,24.25 L 197.9,388.3 124.6,241.7 C 119.2,230.9 108.1,224 96,224 H 32 c -17.67,0 -32,14.31 -32,31.1 0,16.79 14.33,32 32,32 h 44.22 l 103.2,206.3 c 5.469,10.91 16.6,17.68 28.61,17.68 1.172,0 2.323,-0.0576 3.495,-0.1826 13.31,-1.469 24.31,-11.06 27.56,-24.06 l 105.9,-423.8 H 544 C 561.7,64.01 576,49.7 576,32.01 Z m -9.4,201.39 c -12.5,-12.5 -32.75,-12.5 -45.25,0 L 480,274.8 438.62,233.43 c -12.5,-12.5 -32.75,-12.5 -45.25,0 -12.5,12.5 -12.5,32.75 0,45.25 l 41.38,41.38 -41.38,41.38 c -12.5,12.5 -12.5,32.75 0,45.25 6.23,6.21 14.43,9.31 22.63,9.31 8.2,0 16.38,-3.125 22.62,-9.375 L 480,365.3 l 41.38,41.38 c 6.22,6.22 14.42,9.32 22.62,9.32 8.2,0 16.38,-3.125 22.62,-9.375 12.5,-12.5 12.5,-32.75 0,-45.25 L 525.24,319.995 566.6,278.6 c 12.5,-12.5 12.5,-32.7 0,-45.2 z"
     id="path2" />
</svg>
