<?xml version="1.0" encoding="UTF-8" standalone="no"?>
<svg
   aria-hidden="true"
   focusable="false"
   data-prefix="fas"
   data-icon="language"
   class="svg-inline--fa fa-language"
   role="img"
   viewBox="0 0 640 384"
   version="1.1"
   id="svg4"
   width="640"
   height="384"
   xmlns="http://www.w3.org/2000/svg"
   xmlns:svg="http://www.w3.org/2000/svg">
  <defs
     id="defs8" />
  <path
     fill="currentColor"
     d="m 448,100 c 11,0 20,8.1 20,20 v 4 h 60 c 11,0 20,8.1 20,20 0,11 -9,20 -20,20 h -2 l -1.6,4.5 c -8.9,23.6 -22.5,46.6 -39.7,65.4 0.9,0.5 1.8,0.2 2.7,1.6 l 18.9,11.3 c 9.5,5.7 12.5,18 6.8,27.5 -5.6,9.5 -17.9,12.5 -27.4,6.8 l -18.9,-11.3 c -4.4,-2.7 -9.7,-5.5 -13.1,-8.5 -10.5,7.5 -21.9,14 -33.9,19.4 l -3.7,1.6 c -10.1,4.5 -21.9,-0.1 -26.4,-10.2 -4.5,-10.1 0.1,-21.9 10.2,-26.4 l 3.6,-1.6 c 6.4,-2.9 12.6,-7 18.5,-9.8 l -12.1,-12.2 c -7.9,-7.8 -7.9,-20.4 0,-28.2 7.8,-7.9 20.4,-7.9 28.2,0 l 14.6,14.5 0.6,-0.3 c 12.4,-12.2 22.5,-27.4 29.8,-45 H 376 c -11.9,0 -20,-8.1 -20,-20 0,-11 8.1,-20 20,-20 h 52 v -4 c 0,-11 8.1,-20 20,-20 z M 160,169.2 179,212 H 140.1 Z M 0,64 C 0,28.65 28.65,0 64,0 h 512 c 35.3,0 64,28.65 64,64 v 256 c 0,35.3 -28.7,64 -64,64 H 64 C 28.65,384 0,355.3 0,320 Z M 320,320 H 576 V 64 H 320 Z M 178.3,111.9 C 175.1,104.7 167.9,100 160,100 c -7.9,0 -15.1,4.7 -18.3,11.9 l -63.98,144 c -4.48,9.2 0.06,21.9 10.16,26.4 10.09,4.5 21.92,-0.1 26.42,-10.2 l 8.9,-21 h 73.6 l 8.9,21 c 4.5,10.1 16.3,14.7 26.4,10.2 10.1,-4.5 14.7,-17.2 10.2,-26.4 z"
     id="path2" />
</svg>
